<mxfile host="app.diagrams.net" modified="2023-10-01T16:29:39.629Z" agent="Mozilla/5.0 (Windows NT 10.0; Win64; x64) AppleWebKit/537.36 (KHTML, like Gecko) Chrome/117.0.0.0 Safari/537.36 Edg/117.0.2045.43" version="22.0.0" etag="ayCX8teK12HgiyVAcY5S" type="github">
  <diagram name="Страница — 1" id="NoMJu3ygCjmBwalkKQK4">
    <mxGraphModel>
      <root>
        <mxCell id="0" />
        <mxCell id="1" parent="0" />
      </root>
    </mxGraphModel>
  </diagram>
</mxfile>
